<svg width="16" height="16" viewBox="0 0 24 24" xmlns="http://www.w3.org/2000/svg" preserveAspectRatio="xMidYMid meet"
     focusable="false">
    <path
           fill="white"
            d="M22 13a.593.593 0 0 0 0-.08l-.06-.16a.716.716 0 0 0-.07-.09l-.09-.12-.08-.06-.13-.1-4-2.29V5.57c.01-.086.01-.174 0-.26v-.08l-.06-.16L17.3 5l-.09-.11a.24.24 0 0 0-.08-.06.41.41 0 0 0-.13-.1l-4.5-2.6a1 1 0 0 0-1 0L7 4.7a.41.41 0 0 0-.13.1.24.24 0 0 0-.08.06L6.7 5l-.07.09-.06.16v.08a1.09 1.09 0 0 0 0 .26v4.56l-4 2.29-.13.1-.08.06-.09.12a.713.713 0 0 0-.07.09l-.13.19H2a1.09 1.09 0 0 0 0 .26v5.14a1 1 0 0 0 .5.87L7 21.86l.12.05h.12c.171.04.349.04.52 0h.12l.12-.04 4-2.28 4 2.28.12.05h.12c.171.04.349.04.52 0h.12l.12-.05 4.5-2.56a1 1 0 0 0 .5-.87v-5.15a1.091 1.091 0 0 0 0-.29ZM7.5 11.87l1.79 1 .69.4-2.48 1.44L5 13.29l2.5-1.42Zm9 2.84L14 13.29l.69-.4 1.79-1 2.52 1.4-2.5 1.42Zm-1-4.58-.35.2L13 11.56V8.72l2.5-1.43v2.84ZM11 8.72v2.84l-2.15-1.23-.35-.2V7.29L11 8.72Zm1-4.57 2.48 1.42-.64.37L12 7l-1.84-1-.64-.37L12 4.15ZM4 15l2.5 1.43v2.84L4 17.85V15Zm4.5 1.43L11 15v2.84l-2.5 1.44v-2.85ZM13 15l2.5 1.43v2.84L13 17.85V15Zm4.5 4.27v-2.83L20 15v2.84l-2.5 1.43Z"></path>
</svg>
