<?xml version="1.0" encoding="UTF-8"?>
<svg xmlns="http://www.w3.org/2000/svg" viewBox="0 0 1030.64 377.34">
    <defs>
        <style>.d{fill:#ea0029;}.e{fill:white;}</style>
    </defs>
    <g id="a"/>
    <g id="b">
        <g id="c">
            <g>
                <g>
                    <path class="e"
                          d="M864.84,377.34l44.03-91.22c2.11-4.35,4.53-7.35,7.25-8.99,2.72-1.64,6.7-2.47,11.93-2.47s8.92,.85,11.76,2.54c2.83,1.69,5.31,4.67,7.42,8.92l44.03,91.22h-23.18l-12.01-25.67h-56.21l-11.84,25.67h-23.18Zm59.88-80.64l-19.18,41.33h44.87l-19.01-41.33c-1.22-2.8-2.33-4.21-3.34-4.21s-2.11,1.4-3.34,4.21Z"/>
                    <path class="e" d="M1020.61,377.34h-22.02v-101.52h22.02v101.52Z"/>
                </g>
                <g>
                    <rect class="d" x="208.93" y="42.52" width="41.92" height="151.94" rx="12.37" ry="12.37"/>
                    <path class="d"
                          d="M176.71,42.52c-10.83,0-19.91,6.49-24.32,15.78h0l-45.61,96.88c-1.07,2.29-3.22,6.02-5.02,6.02s-3.94-3.73-5.02-6.02L50.84,58.3c-4.4-9.29-13.49-15.78-24.32-15.78H0L72.39,182.71c7.17,13.76,21.86,13.47,29.39,13.47,10.39,0,22.58-.57,29.02-13.47L203.19,42.52h-26.47Z"/>
                    <path class="d"
                          d="M976.53,19.23c0-6.84-5.54-12.38-12.37-12.38h-17.18c-6.83,0-12.37,5.54-12.37,12.38v125.63c0,19.21,6.81,30.39,18.99,38.41,11.83,7.74,25.44,11.18,50.89,11.18h13.78c6.83,0,12.37-5.54,12.37-12.37v-13.43h-10.39c-7.53,0-23.29-.29-32.61-6.59-12.18-8.03-11.11-22.36-11.11-32.68V19.23Z"/>
                    <path class="d"
                          d="M708.12,168.66c-7.53,0-23.3-.29-32.61-6.59-12.18-8.03-11.11-22.36-11.11-32.68v-61.06h40.66c6.83,0,12.38-5.54,12.38-12.37v-13.43h-53.03V19.23h0c0-6.84-5.54-12.38-12.38-12.38h-17.17c-6.83,0-12.38,5.54-12.38,12.38v23.29h-87.44V19.23c0-6.84-5.54-12.38-12.38-12.38h-17.17c-6.83,0-12.38,5.54-12.38,12.38v23.29h-26.16v13.43c0,6.83,5.54,12.37,12.38,12.37h13.79v76.54c0,19.21,6.81,30.39,18.99,38.41,11.83,7.74,25.44,11.18,50.89,11.18h13.78c6.83,0,12.38-5.54,12.38-12.37v-13.43h-10.39c-7.53,0-23.29-.29-32.61-6.59-12.18-8.03-11.11-22.36-11.11-32.68v-61.06h87.44v76.54c0,19.21,6.81,30.39,18.99,38.41,11.83,7.74,25.44,11.18,50.88,11.18h13.78c6.83,0,12.38-5.54,12.38-12.37v-13.43h-10.39Z"/>
                    <path class="d"
                          d="M451.53,182.09v-13.43h-92.81c-15.41,0-32.97-1.72-38.34-18.06-1.44-4.59-2.51-14.33-2.51-20.93h110.37c7.53,0,14.69-1.15,20.43-5.74,7.88-6.31,8.96-15.19,8.96-22.93,0-19.21-4.66-38.13-26.88-49.31-17.56-8.89-40.49-9.75-62.71-9.75-17.92,0-50.17,0-70.95,14.33-20.79,14.33-22.58,35.26-22.58,63.64,0,20.07,1.07,41,13.62,55.33,15.77,17.78,38.7,19.21,58.05,19.21h92.98c6.83,0,12.37-5.54,12.37-12.37Zm-37.27-87.1c0,4.01-1.07,8.89-9.32,8.89h-59.63c-15.16,0-27.45,6.93-27.45,15.48v-15.48c.36-10.03,0-18.35,8.6-26.09,11.47-10.32,28.67-10.03,39.78-10.03,11.83,0,25.44,.57,35.83,6.88,6.09,3.73,12.18,10.89,12.18,20.35Z"/>
                    <path class="d"
                          d="M904.85,182.09v-13.43h-92.81c-15.41,0-32.97-1.72-38.34-18.06-1.44-4.59-2.51-14.33-2.51-20.93h110.37c7.53,0,14.69-1.15,20.43-5.74,7.88-6.31,8.96-15.19,8.96-22.93,0-19.21-4.66-38.13-26.88-49.31-17.56-8.89-40.49-9.75-62.71-9.75-17.92,0-50.17,0-70.95,14.33-20.79,14.33-22.58,35.26-22.58,63.64,0,20.07,1.07,41,13.62,55.33,15.77,17.78,38.7,19.21,58.05,19.21h92.98c6.83,0,12.37-5.54,12.37-12.37Zm-37.27-87.1c0,4.01-1.07,8.89-9.32,8.89h-59.63c-15.16,0-27.45,6.93-27.45,15.48v-15.48c.36-10.03,0-18.35,8.6-26.09,11.47-10.32,28.67-10.03,39.78-10.03,11.83,0,25.44,.57,35.83,6.88,6.09,3.73,12.18,10.89,12.18,20.35Z"/>
                    <path class="d"
                          d="M238.48,0h-17.17c-6.84,0-12.38,5.54-12.38,12.37v30.15h.17c1.19-7.02,9.17-14.34,20.79-14.34h8.59c6.83,0,12.37-5.54,12.37-12.37v-3.43c0-6.83-5.54-12.37-12.37-12.37Z"/>
                </g>
            </g>
        </g>
    </g>
</svg>
