# Blender v2.92.0 OBJ File: ''
# www.blender.org
mtllib cmae_v6.mtl
o Cube
v -0.281116 0.281116 0.319449
v 0.281116 0.281116 0.281116
v -0.281116 0.281116 0.281116
v 0.281116 0.281116 -0.281116
v -0.281116 0.281116 -0.281116
v 0.281116 0.281116 -0.281116
v 0.174016 0.281116 -0.174016
v 0.281116 0.281116 0.281116
v 0.174016 0.281116 0.174016
v -0.174016 0.281116 -0.174016
v -0.281116 0.281116 -0.281116
v -0.174016 0.281116 0.174016
v -0.281116 0.281116 0.281116
v 0.281116 0.281165 0.281116
v 0.174016 0.281165 0.174016
v -0.174016 0.281165 0.174016
v -0.281116 0.281165 0.281116
v 0.281116 0.281165 -0.281116
v 0.174016 0.281165 -0.174016
v -0.174016 0.281165 -0.174016
v -0.281116 0.281165 -0.281116
v 0.118210 0.356578 0.112963
v -0.118210 0.321752 0.118210
v 0.118210 0.286926 -0.112963
v -0.118210 0.321752 -0.118210
v 0.174016 0.321752 0.174016
v -0.174016 0.321752 0.174016
v 0.174016 0.321752 -0.174016
v -0.174016 0.321752 -0.174016
v 0.174016 0.321752 0.174016
v -0.174016 0.321752 0.174016
v 0.174016 0.321752 -0.174016
v -0.174016 0.321752 -0.174016
v 0.174016 0.321752 0.174016
v -0.174016 0.321752 0.174016
v 0.174016 0.321752 -0.174016
v -0.174016 0.321752 -0.174016
v 0.281116 0.421640 0.281116
v 0.174016 0.421640 0.174016
v -0.174016 0.421640 0.174016
v -0.281116 0.421640 0.281116
v 0.281116 0.421640 -0.281116
v 0.174016 0.421640 -0.174016
v -0.174016 0.421640 -0.174016
v -0.281116 0.421640 -0.281116
v -0.333800 -0.417367 -0.281116
v 0.331959 -0.417367 0.319449
v -0.333800 -0.417367 -0.319840
v 0.331959 -0.417367 0.281116
v -0.333800 0.281116 0.281116
v -0.333800 0.281116 -0.281116
v -0.333800 -0.375281 -0.281116
v -0.333800 -0.375281 0.281116
v 0.331959 0.281116 -0.281116
v 0.331959 0.281116 0.281116
v 0.331959 -0.375281 0.281116
v 0.331959 -0.375281 -0.281116
v 0.281116 0.281116 -0.319840
v -0.281116 0.281116 -0.319840
v 0.281116 -0.375281 -0.319840
v -0.281116 -0.375281 -0.319840
v -0.333800 0.281116 -0.319840
v -0.333800 -0.281116 -0.319840
v -0.333800 -0.375281 -0.319840
v 0.331959 0.281116 -0.319840
v 0.331959 -0.281116 -0.319840
v 0.331959 -0.375281 -0.319840
v 0.281116 0.281116 0.319449
v -0.281116 -0.375281 0.319449
v 0.281116 -0.375281 0.319449
v -0.333800 -0.281116 0.319449
v -0.333800 0.281116 0.319449
v -0.333800 -0.375281 0.319449
v 0.331959 0.281116 0.319449
v 0.331959 -0.281116 0.319449
v 0.331959 -0.375281 0.319449
v -0.333800 -0.417367 0.281116
v 0.331959 -0.417367 -0.281116
v 0.281116 -0.417367 -0.319840
v -0.281116 -0.417367 -0.319840
v 0.331959 -0.417367 -0.319840
v -0.281116 -0.417367 0.319449
v 0.281116 -0.417367 0.319449
v -0.333800 -0.417367 0.319449
v -0.333800 -0.500377 0.319449
v -0.333800 -0.500377 0.281116
v 0.331959 -0.500377 -0.319840
v 0.331959 -0.500377 -0.281116
v 0.281116 -0.500377 0.319449
v 0.331959 -0.500377 0.319449
v 0.281116 -0.500377 -0.319840
v -0.281116 -0.500377 -0.319840
v -0.281116 -0.500377 0.319449
v -0.333800 -0.500377 -0.281116
v -0.333800 -0.500377 -0.319840
v 0.331959 -0.500377 0.281116
v -0.333800 -0.606470 0.319449
v -0.333800 -0.606470 0.281116
v 0.331959 -0.606470 -0.319840
v 0.331959 -0.606470 -0.281116
v 0.281116 -0.606470 0.319449
v 0.331959 -0.606470 0.319449
v 0.281116 -0.606470 -0.319840
v -0.281116 -0.606470 -0.319840
v -0.281116 -0.606470 0.319449
v -0.333800 -0.606470 -0.281116
v -0.333800 -0.606470 -0.319840
v 0.331959 -0.606470 0.281116
v -0.281116 0.521719 0.281116
v 0.281116 0.521719 0.281116
v 0.281116 0.521719 -0.281116
v -0.281116 0.521719 -0.281116
vt 0.875000 0.500000
vt 0.625000 0.500000
vt 0.625000 0.500000
vt 0.875000 0.500000
vt 0.625000 0.750000
vt 0.625000 0.750000
vt 0.625000 0.750000
vt 0.625000 0.750000
vt 0.875000 0.750000
vt 0.875000 0.750000
vt 0.827377 0.547623
vt 0.827377 0.702377
vt 0.827377 0.702377
vt 0.827377 0.547623
vt 0.625000 0.750000
vt 0.672623 0.547623
vt 0.672623 0.702377
vt 0.672623 0.702377
vt 0.672623 0.547623
vt 0.827377 0.547623
vt 0.827377 0.702377
vt 0.875000 0.750000
vt 0.875000 0.500000
vt 0.625000 0.500000
vt 0.672623 0.702377
vt 0.672623 0.547623
vt 0.827377 0.547623
vt 0.827377 0.702377
vt 0.875000 0.750000
vt 0.875000 0.500000
vt 0.625000 0.750000
vt 0.697437 0.572437
vt 0.802563 0.572437
vt 0.802563 0.677563
vt 0.697437 0.677563
vt 0.672623 0.547623
vt 0.672623 0.702377
vt 0.672623 0.702377
vt 0.827377 0.702377
vt 0.672623 0.547623
vt 0.827377 0.547623
vt 0.672623 0.702377
vt 0.827377 0.702377
vt 0.672623 0.547623
vt 0.827377 0.547623
vt 0.625000 0.500000
vt 0.625000 0.750000
vt 0.875000 0.500000
vt 0.625000 0.500000
vt 0.375000 0.750000
vt 0.375000 0.750000
vt 0.375000 0.750000
vt 0.375000 0.750000
vt 0.875000 0.500000
vt 0.875000 0.750000
vt 0.375000 0.250000
vt 0.375000 0.500000
vt 0.375000 0.500000
vt 0.375000 0.250000
vt 0.375000 0.250000
vt 0.375000 0.250000
vt 0.375000 1.000000
vt 0.375000 1.000000
vt 0.375000 1.000000
vt 0.375000 1.000000
vt 0.875000 0.750000
vt 0.625000 0.500000
vt 0.875000 0.500000
vt 0.625000 0.500000
vt 0.375000 0.500000
vt 0.375000 0.500000
vt 0.625000 0.250000
vt 0.625000 0.250000
vt 0.375000 0.250000
vt 0.375000 0.250000
vt 0.375000 0.000000
vt 0.375000 0.000000
vt 0.375000 0.000000
vt 0.625000 0.000000
vt 0.625000 0.000000
vt 0.625000 0.500000
vt 0.375000 0.500000
vt 0.375000 0.500000
vt 0.875000 0.500000
vt 0.625000 0.250000
vt 0.375000 0.500000
vt 0.375000 0.750000
vt 0.375000 0.750000
vt 0.375000 0.750000
vt 0.375000 0.750000
vt 0.375000 0.500000
vt 0.875000 0.750000
vt 0.625000 1.000000
vt 0.625000 1.000000
vt 0.375000 1.000000
vt 0.375000 0.000000
vt 0.375000 0.000000
vt 0.375000 0.250000
vt 0.375000 0.500000
vt 0.375000 0.500000
vt 0.375000 0.500000
vt 0.375000 0.500000
vt 0.375000 0.250000
vt 0.375000 0.250000
vt 0.375000 0.000000
vt 0.375000 0.250000
vt 0.375000 1.000000
vt 0.375000 1.000000
vt 0.375000 0.000000
vt 0.375000 0.750000
vt 0.375000 0.750000
vt 0.125000 0.500000
vt 0.375000 0.500000
vt 0.375000 0.750000
vt 0.375000 0.750000
vt 0.375000 0.750000
vt 0.125000 0.750000
vt 0.125000 0.750000
vt 0.125000 0.750000
vt 0.125000 0.500000
vt 0.125000 0.500000
vt 0.375000 1.000000
vt 0.375000 0.250000
vt 0.375000 0.250000
vt 0.375000 0.250000
vt 0.375000 0.000000
vt 0.375000 0.000000
vt 0.375000 1.000000
vt 0.875000 0.750000
vt 0.625000 0.750000
vn 0.0000 0.0000 1.0000
vn 0.0000 1.0000 0.0000
vn -1.0000 0.0000 0.0000
vn 1.0000 0.0000 0.0000
vn 0.0000 0.0000 -1.0000
vn -0.7952 -0.6063 0.0000
vn 0.0000 0.9888 -0.1490
vn -0.0545 0.9569 0.2852
vn -0.0000 0.9927 -0.1205
vn 0.0545 0.9569 0.2852
vn 0.0000 -0.6063 -0.7952
vn 0.7952 -0.6063 0.0000
vn 0.0000 -0.6063 0.7952
vn -0.0005 1.0000 0.0000
vn 0.0000 1.0000 -0.0005
vn 0.0005 1.0000 0.0000
vn 0.0000 1.0000 0.0005
vn 0.0000 -1.0000 0.0000
usemtl Material
s off
f 11/1/1 6/2/1 4/3/1 5/4/1
f 55/5/2 2/6/2 68/7/2 74/8/2
f 13/9/1 11/1/1 5/4/1 3/10/1
f 10/11/3 12/12/3 27/13/3 29/14/3
f 8/15/1 13/9/1 3/10/1 2/6/1
f 7/16/3 9/17/3 15/18/3 19/19/3
f 12/12/4 10/11/4 20/20/4 16/21/4
f 11/1/3 13/9/3 17/22/3 21/23/3
f 6/2/5 11/1/5 21/23/5 18/24/5
f 6/2/1 8/15/1 2/6/1 4/3/1
f 19/19/3 15/18/3 39/25/3 43/26/3
f 16/21/4 20/20/4 44/27/4 40/28/4
f 41/29/6 45/30/6 20/20/6 16/21/6
f 13/9/1 8/15/1 14/31/1 17/22/1
f 9/17/5 12/12/5 16/21/5 15/18/5
f 10/11/1 7/16/1 19/19/1 20/20/1
f 8/15/4 6/2/4 18/24/4 14/31/4
f 24/32/7 25/33/7 23/34/7 22/35/7
f 9/17/4 7/16/4 28/36/4 26/37/4
f 12/12/1 9/17/1 26/37/1 27/13/1
f 7/16/5 10/11/5 29/14/5 28/36/5
f 30/38/1 31/39/1 27/13/1 26/37/1
f 32/40/1 30/38/1 26/37/1 28/36/1
f 31/39/1 33/41/1 29/14/1 27/13/1
f 33/41/1 32/40/1 28/36/1 29/14/1
f 34/42/1 35/43/1 31/39/1 30/38/1
f 36/44/1 34/42/1 30/38/1 32/40/1
f 35/43/1 37/45/1 33/41/1 31/39/1
f 37/45/1 36/44/1 32/40/1 33/41/1
f 22/35/8 23/34/8 35/43/8 34/42/8
f 24/32/9 22/35/9 34/42/9 36/44/9
f 23/34/2 25/33/2 37/45/2 35/43/2
f 25/33/10 24/32/10 36/44/10 37/45/10
f 15/18/5 16/21/5 40/28/5 39/25/5
f 20/20/1 19/19/1 43/26/1 44/27/1
f 45/30/11 42/46/11 19/19/11 20/20/11
f 42/46/12 38/47/12 15/18/12 19/19/12
f 38/47/13 41/29/13 16/21/13 15/18/13
f 16/21/14 20/20/14 11/1/14 13/9/14
f 20/20/15 19/19/15 6/2/15 11/1/15
f 19/19/16 15/18/16 8/15/16 6/2/16
f 15/18/17 16/21/17 13/9/17 8/15/17
f 42/46/5 45/30/5 112/48/5 111/49/5
f 76/50/1 70/51/1 83/52/1 47/53/1
f 3/10/2 5/4/2 51/54/2 50/55/2
f 61/56/5 60/57/5 79/58/5 80/59/5
f 64/60/5 61/56/5 80/59/5 48/61/5
f 69/62/1 73/63/1 84/64/1 82/65/1
f 2/6/2 3/10/2 1/66/2 68/7/2
f 5/4/2 4/3/2 58/67/2 59/68/2
f 4/3/2 2/6/2 55/5/2 54/69/2
f 60/57/5 67/70/5 81/71/5 79/58/5
f 51/72/3 62/73/3 63/74/3 64/60/3 52/75/3 53/76/3 73/77/3 71/78/3 72/79/3 50/80/3
f 4/3/2 54/69/2 65/81/2 58/67/2
f 67/70/4 57/82/4 78/83/4 81/71/4
f 51/54/2 5/4/2 59/68/2 62/84/2
f 60/57/5 61/56/5 64/60/5 63/74/5 62/73/5 59/85/5 58/67/5 65/81/5 66/86/5 67/70/5
f 75/87/4 76/50/4 56/88/4 57/82/4 67/70/4 66/86/4 65/81/4 54/69/4 55/5/4 74/8/4
f 70/51/1 69/62/1 82/65/1 83/52/1
f 78/83/4 49/89/4 96/90/4 88/91/4
f 56/88/4 76/50/4 47/53/4 49/89/4
f 3/10/2 50/55/2 72/92/2 1/66/2
f 68/7/1 1/93/1 72/94/1 71/95/1 73/63/1 69/62/1 70/51/1 76/50/1 75/87/1 74/8/1
f 57/82/4 56/88/4 49/89/4 78/83/4
f 73/77/3 53/76/3 77/96/3 84/97/3
f 52/75/3 64/60/3 48/61/3 46/98/3
f 53/76/3 52/75/3 46/98/3 77/96/3
f 87/99/4 88/91/4 100/100/4 99/101/4
f 80/59/5 79/58/5 91/102/5 92/103/5
f 77/96/3 46/98/3 94/104/3 86/105/3
f 48/61/5 80/59/5 92/103/5 95/106/5
f 82/65/1 84/64/1 85/107/1 93/108/1
f 84/97/3 77/96/3 86/105/3 85/109/3
f 81/71/4 78/83/4 88/91/4 87/99/4
f 49/89/4 47/53/4 90/110/4 96/90/4
f 79/58/5 81/71/5 87/99/5 91/102/5
f 46/98/3 48/61/3 95/106/3 94/104/3
f 47/53/1 83/52/1 89/111/1 90/110/1
f 83/52/1 82/65/1 93/108/1 89/111/1
f 104/112/18 103/113/18 99/101/18 100/100/18 108/114/18 102/115/18 101/116/18 105/117/18 97/118/18 98/119/18 106/120/18 107/121/18
f 89/111/1 93/108/1 105/122/1 101/116/1
f 91/102/5 87/99/5 99/101/5 103/113/5
f 90/110/1 89/111/1 101/116/1 102/115/1
f 88/91/4 96/90/4 108/114/4 100/100/4
f 94/104/3 95/106/3 107/123/3 106/124/3
f 92/103/5 91/102/5 103/113/5 104/125/5
f 86/105/3 94/104/3 106/124/3 98/126/3
f 85/109/3 86/105/3 98/126/3 97/127/3
f 95/106/5 92/103/5 104/125/5 107/123/5
f 93/108/1 85/107/1 97/128/1 105/122/1
f 96/90/4 90/110/4 102/115/4 108/114/4
f 109/129/2 110/130/2 111/49/2 112/48/2
f 45/30/3 41/29/3 109/129/3 112/48/3
f 38/47/4 42/46/4 111/49/4 110/130/4
f 41/29/1 38/47/1 110/130/1 109/129/1
