<svg
        width="24"
        height="24"
        viewBox="0 0 24 24"
        fill="none"
        xmlns="http://www.w3.org/2000/svg"
>
  <path
          d="M12 21.9999C11.0465 21.9999 10.1024 21.8677 9.19389 21.607C8.77917 21.488 8.53944 21.0553 8.65843 20.6406C8.77745 20.2259 9.21018 19.9862 9.62483 20.1052C10.3932 20.3256 11.1923 20.4374 12 20.4374C16.7313 20.4374 20.4375 16.7312 20.4375 11.9999C20.4375 11.1922 20.3257 10.393 20.1053 9.6247C19.9863 9.20997 20.226 8.77727 20.6408 8.65829C21.0555 8.53935 21.4882 8.77903 21.6072 9.19376C21.8678 10.1022 22 11.0464 22 11.9999C22 17.6073 17.6075 21.9999 12 21.9999Z"
          fill="white"
  />
  <path
          d="M2.39285 14.8061C2.13219 13.8976 2 12.9535 2 12C2 6.39253 6.39253 2 12 2C12.9535 2 13.8976 2.13219 14.8061 2.39285C15.2208 2.51184 15.4606 2.94453 15.3416 3.35926C15.2226 3.77398 14.7899 4.01379 14.3752 3.89472C13.6069 3.6743 12.8077 3.5625 12 3.5625C7.26867 3.5625 3.5625 7.26867 3.5625 12C3.5625 12.8077 3.6743 13.6069 3.89472 14.3752C4.01375 14.7899 3.77398 15.2226 3.35926 15.3416C2.94594 15.4603 2.51223 15.2223 2.39285 14.8061Z"
          fill="white"
  />
  <path
          d="M20.2864 3.71349C19.3705 2.79755 17.8879 2.79743 16.9718 3.71349C16.2365 4.44884 16.1051 5.52848 16.5134 6.38161L6.38169 16.5133C5.52818 16.1048 4.44861 16.2367 3.71361 16.9717C2.79767 17.8876 2.79755 19.3702 3.71361 20.2863C4.62954 21.2022 6.11208 21.2023 7.02817 20.2863C7.76353 19.5509 7.89493 18.4713 7.48657 17.6182L17.6183 7.48641C18.4718 7.89497 19.5514 7.76305 20.2864 7.02801C21.2023 6.11212 21.2025 4.62954 20.2864 3.71349ZM5.92333 19.1814C5.92333 19.1814 5.92333 19.1814 5.92333 19.1814C5.61802 19.4867 5.1238 19.4868 4.81849 19.1814C4.51318 18.8762 4.51314 18.3819 4.81849 18.0766C5.12372 17.7712 5.61794 17.7712 5.92333 18.0766C6.22857 18.3819 6.22872 18.8761 5.92333 19.1814ZM19.1816 5.92321C18.8763 6.22852 18.3821 6.22856 18.0767 5.92321C17.7714 5.6179 17.7713 5.12372 18.0767 4.81837C18.382 4.51309 18.8762 4.51298 19.1816 4.81837C19.4869 5.1236 19.4869 5.61782 19.1816 5.92321Z"
          fill="white"
  />
</svg>
